<svg xmlns="http://www.w3.org/2000/svg" viewBox="0 0 800 200">
  <defs>
    <linearGradient id="grad1" x1="0%" y1="0%" x2="100%" y2="0%">
      <stop offset="0%" style="stop-color:#667eea;stop-opacity:1" />
      <stop offset="100%" style="stop-color:#764ba2;stop-opacity:1" />
    </linearGradient>
    <linearGradient id="grad2" x1="0%" y1="0%" x2="100%" y2="0%">
      <stop offset="0%" style="stop-color:#f093fb;stop-opacity:1" />
      <stop offset="100%" style="stop-color:#f5576c;stop-opacity:1" />
    </linearGradient>
  </defs>
  
  <!-- Background -->
  <rect width="800" height="200" fill="url(#grad1)"/>
  
  <!-- GPU Circuit Pattern -->
  <g opacity="0.1">
    <circle cx="100" cy="50" r="2" fill="white"/>
    <circle cx="150" cy="80" r="2" fill="white"/>
    <circle cx="200" cy="60" r="2" fill="white"/>
    <circle cx="250" cy="90" r="2" fill="white"/>
    <circle cx="300" cy="40" r="2" fill="white"/>
    <circle cx="350" cy="70" r="2" fill="white"/>
    <circle cx="400" cy="55" r="2" fill="white"/>
    <circle cx="450" cy="85" r="2" fill="white"/>
    <circle cx="500" cy="45" r="2" fill="white"/>
    <circle cx="550" cy="75" r="2" fill="white"/>
    <circle cx="600" cy="50" r="2" fill="white"/>
    <circle cx="650" cy="80" r="2" fill="white"/>
    <circle cx="700" cy="60" r="2" fill="white"/>
    
    <!-- Connection lines -->
    <line x1="100" y1="50" x2="150" y2="80" stroke="white" stroke-width="1"/>
    <line x1="150" y1="80" x2="200" y2="60" stroke="white" stroke-width="1"/>
    <line x1="200" y1="60" x2="250" y2="90" stroke="white" stroke-width="1"/>
    <line x1="250" y1="90" x2="300" y2="40" stroke="white" stroke-width="1"/>
    <line x1="300" y1="40" x2="350" y2="70" stroke="white" stroke-width="1"/>
    <line x1="350" y1="70" x2="400" y2="55" stroke="white" stroke-width="1"/>
    <line x1="400" y1="55" x2="450" y2="85" stroke="white" stroke-width="1"/>
    <line x1="450" y1="85" x2="500" y2="45" stroke="white" stroke-width="1"/>
    <line x1="500" y1="45" x2="550" y2="75" stroke="white" stroke-width="1"/>
    <line x1="550" y1="75" x2="600" y2="50" stroke="white" stroke-width="1"/>
    <line x1="600" y1="50" x2="650" y2="80" stroke="white" stroke-width="1"/>
    <line x1="650" y1="80" x2="700" y2="60" stroke="white" stroke-width="1"/>
    
    <!-- Bottom circuit -->
    <circle cx="120" cy="150" r="2" fill="white"/>
    <circle cx="180" cy="130" r="2" fill="white"/>
    <circle cx="240" cy="160" r="2" fill="white"/>
    <circle cx="300" cy="140" r="2" fill="white"/>
    <circle cx="360" cy="170" r="2" fill="white"/>
    <circle cx="420" cy="130" r="2" fill="white"/>
    <circle cx="480" cy="155" r="2" fill="white"/>
    <circle cx="540" cy="135" r="2" fill="white"/>
    <circle cx="600" cy="165" r="2" fill="white"/>
    <circle cx="660" cy="145" r="2" fill="white"/>
    
    <line x1="120" y1="150" x2="180" y2="130" stroke="white" stroke-width="1"/>
    <line x1="180" y1="130" x2="240" y2="160" stroke="white" stroke-width="1"/>
    <line x1="240" y1="160" x2="300" y2="140" stroke="white" stroke-width="1"/>
    <line x1="300" y1="140" x2="360" y2="170" stroke="white" stroke-width="1"/>
    <line x1="360" y1="170" x2="420" y2="130" stroke="white" stroke-width="1"/>
    <line x1="420" y1="130" x2="480" y2="155" stroke="white" stroke-width="1"/>
    <line x1="480" y1="155" x2="540" y2="135" stroke="white" stroke-width="1"/>
    <line x1="540" y1="135" x2="600" y2="165" stroke="white" stroke-width="1"/>
    <line x1="600" y1="165" x2="660" y2="145" stroke="white" stroke-width="1"/>
  </g>
  
  <!-- Main Logo -->
  <g transform="translate(50, 70)">
    <!-- GPU Icon -->
    <rect x="0" y="0" width="60" height="40" rx="5" fill="white" opacity="0.9"/>
    <rect x="5" y="5" width="50" height="30" rx="2" fill="url(#grad2)"/>
    <rect x="10" y="10" width="40" height="5" rx="1" fill="white" opacity="0.8"/>
    <rect x="10" y="17" width="40" height="5" rx="1" fill="white" opacity="0.8"/>
    <rect x="10" y="24" width="40" height="5" rx="1" fill="white" opacity="0.8"/>
    
    <!-- Connection ports -->
    <rect x="55" y="12" width="8" height="6" rx="1" fill="white" opacity="0.7"/>
    <rect x="55" y="22" width="8" height="6" rx="1" fill="white" opacity="0.7"/>
  </g>
  
  <!-- Title Text -->
  <text x="130" y="105" font-family="Arial, sans-serif" font-size="36" font-weight="bold" fill="white">
    OpenGPU SDK
  </text>
  
  <!-- Subtitle -->
  <text x="130" y="130" font-family="Arial, sans-serif" font-size="16" fill="white" opacity="0.8">
    Python SDK for Distributed GPU Computing
  </text>
  
  <!-- Decorative Elements -->
  <circle cx="680" cy="40" r="20" fill="white" opacity="0.1"/>
  <circle cx="720" cy="70" r="15" fill="white" opacity="0.1"/>
  <circle cx="750" cy="100" r="10" fill="white" opacity="0.1"/>
  
  <circle cx="70" cy="160" r="25" fill="white" opacity="0.1"/>
  <circle cx="40" cy="130" r="18" fill="white" opacity="0.1"/>
  <circle cx="20" cy="100" r="12" fill="white" opacity="0.1"/>
</svg>
